<svg width="416" height="240" viewBox="0 0 416 240" fill="none" xmlns="http://www.w3.org/2000/svg">
<g clip-path="url(#clip0_1_29478)">
<path d="M164.729 79.5645L168.597 81.7595L172.465 79.5645C196.914 65.6936 226.485 69.7929 245.304 88.8916L262.42 76.4908L266.56 82.205L270.701 87.9193C270.701 87.9193 212.042 130.419 211.998 130.451C208.469 133.007 207.273 138.253 209.96 141.855C212.244 144.916 216.677 145.93 220.079 144.104L220.124 144.08L255.49 125.431C261.486 122.221 268.254 121.716 273.131 121.7C273.456 121.699 273.773 121.7 274.08 121.703C289.742 121.835 304.648 115.855 316.079 104.884L316.246 104.728L328.021 94.1378V15.2344L278.943 27.7242C266.113 30.9889 252.918 33.1928 239.723 34.2744L202.57 37.3189C191.836 37.39 181.45 41.2668 173.292 48.2535L148 73.0524C153.76 74.3621 159.388 76.534 164.729 79.5645Z" fill="#FFC6B5"/>
<path d="M247.004 145.857L226.706 156.56C223.453 158.3 219.905 159.135 216.386 159.135C209.586 159.135 202.891 156.018 198.626 150.301C194.982 145.414 193.54 139.415 194.565 133.406C195.583 127.442 198.892 122.292 203.888 118.89L233.674 97.3097C219.259 84.054 197.533 81.5627 179.409 91.8466L168.576 97.9927L157.744 91.8466C150.542 87.7605 142.66 85.7033 134.743 85.7033C128.143 85.7033 121.519 87.133 115.243 90.0082C101.439 96.3321 91.831 108.502 88.8819 123.396C85.6689 139.621 91.3714 156.505 103.764 167.46L168.577 224.752L233.388 167.46C239.71 161.873 244.437 154.256 247.004 145.857Z" fill="#FFC6B5"/>
</g>
<defs>
<clipPath id="clip0_1_29478">
<rect width="240" height="240" fill="white" transform="translate(88)"/>
</clipPath>
</defs>
</svg>
