<svg width="60" height="60" viewBox="0 0 60 60" fill="none" xmlns="http://www.w3.org/2000/svg">
<rect width="60" height="60" rx="8" fill="#4F7C2F"/>
<path d="M32.8125 28.4766C33.3073 28.6719 33.7891 28.8867 34.2578 29.1211C34.7266 29.3555 35.1823 29.6224 35.625 29.9219C35.3385 30.2344 35.0781 30.5599 34.8438 30.8984C34.6094 31.237 34.3945 31.6016 34.1992 31.9922C33.1966 31.3411 32.1289 30.8464 30.9961 30.5078C29.8633 30.1693 28.6979 30 27.5 30C26.3542 30 25.2474 30.1497 24.1797 30.4492C23.112 30.7487 22.1159 31.1654 21.1914 31.6992C20.2669 32.2331 19.4271 32.8841 18.6719 33.6523C17.9167 34.4206 17.2656 35.2669 16.7188 36.1914C16.1719 37.1159 15.7487 38.112 15.4492 39.1797C15.1497 40.2474 15 41.3542 15 42.5H12.5C12.5 40.9375 12.7279 39.4336 13.1836 37.9883C13.6393 36.543 14.2969 35.2083 15.1562 33.9844C16.0156 32.7604 17.0312 31.6732 18.2031 30.7227C19.375 29.7721 20.7031 29.0234 22.1875 28.4766C20.7161 27.513 19.5703 26.3021 18.75 24.8438C17.9297 23.3854 17.513 21.7708 17.5 20C17.5 18.6198 17.7604 17.3242 18.2812 16.1133C18.8021 14.9023 19.5117 13.8411 20.4102 12.9297C21.3086 12.0182 22.3698 11.3021 23.5938 10.7812C24.8177 10.2604 26.1198 10 27.5 10C28.8802 10 30.1758 10.2604 31.3867 10.7812C32.5977 11.3021 33.6589 12.0117 34.5703 12.9102C35.4818 13.8086 36.1979 14.8698 36.7188 16.0938C37.2396 17.3177 37.5 18.6198 37.5 20C37.5 20.8594 37.3958 21.6992 37.1875 22.5195C36.9792 23.3398 36.6667 24.1146 36.25 24.8438C35.8333 25.5729 35.3451 26.2435 34.7852 26.8555C34.2253 27.4674 33.5677 28.0078 32.8125 28.4766ZM20 20C20 21.0417 20.1953 22.0117 20.5859 22.9102C20.9766 23.8086 21.5104 24.6029 22.1875 25.293C22.8646 25.9831 23.6589 26.5234 24.5703 26.9141C25.4818 27.3047 26.4583 27.5 27.5 27.5C28.5286 27.5 29.4987 27.3047 30.4102 26.9141C31.3216 26.5234 32.1159 25.9896 32.793 25.3125C33.4701 24.6354 34.0104 23.8411 34.4141 22.9297C34.8177 22.0182 35.013 21.0417 35 20C35 18.9714 34.8047 18.0013 34.4141 17.0898C34.0234 16.1784 33.4896 15.3841 32.8125 14.707C32.1354 14.0299 31.3346 13.4896 30.4102 13.0859C29.4857 12.6823 28.5156 12.487 27.5 12.5C26.4583 12.5 25.4883 12.6953 24.5898 13.0859C23.6914 13.4766 22.8971 14.0104 22.207 14.6875C21.5169 15.3646 20.9766 16.1654 20.5859 17.0898C20.1953 18.0143 20 18.9844 20 20ZM48.75 36.25C48.75 36.9271 48.6458 37.5846 48.4375 38.2227C48.2292 38.8607 47.9167 39.4531 47.5 40V50L42.5 47.5L37.5 50V40C37.0964 39.4531 36.7904 38.8607 36.582 38.2227C36.3737 37.5846 36.263 36.9271 36.25 36.25C36.25 35.3906 36.4128 34.5833 36.7383 33.8281C37.0638 33.0729 37.5065 32.4154 38.0664 31.8555C38.6263 31.2956 39.2904 30.8464 40.0586 30.5078C40.8268 30.1693 41.6406 30 42.5 30C43.3594 30 44.1667 30.1628 44.9219 30.4883C45.6771 30.8138 46.3346 31.263 46.8945 31.8359C47.4544 32.4089 47.9036 33.0729 48.2422 33.8281C48.5807 34.5833 48.75 35.3906 48.75 36.25ZM42.5 32.5C41.9792 32.5 41.4909 32.5977 41.0352 32.793C40.5794 32.9883 40.1823 33.2552 39.8438 33.5938C39.5052 33.9323 39.2383 34.3294 39.043 34.7852C38.8477 35.2409 38.75 35.7292 38.75 36.25C38.75 36.7708 38.8477 37.2591 39.043 37.7148C39.2383 38.1706 39.5052 38.5677 39.8438 38.9062C40.1823 39.2448 40.5794 39.5117 41.0352 39.707C41.4909 39.9023 41.9792 40 42.5 40C43.0208 40 43.5091 39.9023 43.9648 39.707C44.4206 39.5117 44.8177 39.2448 45.1562 38.9062C45.4948 38.5677 45.7617 38.1706 45.957 37.7148C46.1523 37.2591 46.25 36.7708 46.25 36.25C46.25 35.7292 46.1523 35.2409 45.957 34.7852C45.7617 34.3294 45.4948 33.9323 45.1562 33.5938C44.8177 33.2552 44.4206 32.9883 43.9648 32.793C43.5091 32.5977 43.0208 32.5 42.5 32.5ZM45 45.957V41.9727C44.2188 42.3242 43.3854 42.5 42.5 42.5C41.6146 42.5 40.7812 42.3242 40 41.9727V45.957C40.4167 45.7487 40.8333 45.5469 41.25 45.3516C41.6667 45.1562 42.0833 44.9414 42.5 44.707C42.9167 44.9284 43.3333 45.1367 43.75 45.332C44.1667 45.5273 44.5833 45.7357 45 45.957Z" fill="white"/>
</svg>
