<svg width="60" height="60" viewBox="0 0 60 60" fill="none" xmlns="http://www.w3.org/2000/svg">
<rect width="60" height="60" rx="8" fill="#4F7C2F"/>
<path d="M28.9375 34.6718C30.6146 33.5577 31.8885 31.9333 32.5706 30.0389C33.2527 28.1446 33.3068 26.0809 32.725 24.1534C32.1431 22.2259 30.9561 20.537 29.3397 19.3365C27.7233 18.136 25.7634 17.4878 23.75 17.4878C21.7366 17.4878 19.7766 18.136 18.1603 19.3365C16.5439 20.537 15.3569 22.2259 14.775 24.1534C14.1932 26.0809 14.2473 28.1446 14.9294 30.0389C15.6115 31.9333 16.8854 33.5577 18.5625 34.6718C15.7015 35.7239 13.2314 37.6269 11.4844 40.1249C11.3705 40.2568 11.2855 40.4111 11.2348 40.5779C11.1841 40.7446 11.1688 40.9201 11.1899 41.0931C11.211 41.2661 11.268 41.4327 11.3574 41.5824C11.4467 41.732 11.5663 41.8613 11.7086 41.962C11.8508 42.0626 12.0126 42.1325 12.1834 42.1669C12.3542 42.2014 12.5304 42.1998 12.7005 42.1622C12.8707 42.1245 13.0311 42.0517 13.1715 41.9485C13.3119 41.8452 13.4291 41.7137 13.5156 41.5624C14.6707 39.9214 16.2035 38.5822 17.9847 37.6578C19.7659 36.7334 21.7432 36.2508 23.75 36.2508C25.7568 36.2508 27.7341 36.7334 29.5153 37.6578C31.2965 38.5822 32.8293 39.9214 33.9844 41.5624C34.0709 41.7137 34.1881 41.8452 34.3285 41.9485C34.4689 42.0517 34.6293 42.1245 34.7995 42.1622C34.9696 42.1998 35.1458 42.2014 35.3166 42.1669C35.4874 42.1325 35.6492 42.0626 35.7914 41.962C35.9337 41.8613 36.0533 41.732 36.1426 41.5824C36.232 41.4327 36.289 41.2661 36.3101 41.0931C36.3312 40.9201 36.3159 40.7446 36.2652 40.5779C36.2145 40.4111 36.1295 40.2568 36.0156 40.1249C34.2686 37.6269 31.7985 35.7239 28.9375 34.6718ZM16.875 26.8749C16.875 25.5152 17.2782 24.186 18.0336 23.0554C18.7891 21.9248 19.8628 21.0436 21.119 20.5232C22.3753 20.0029 23.7576 19.8667 25.0912 20.132C26.4249 20.3973 27.6499 21.0521 28.6114 22.0136C29.5728 22.975 30.2276 24.2001 30.4929 25.5337C30.7582 26.8673 30.622 28.2496 30.1017 29.5059C29.5813 30.7621 28.7001 31.8358 27.5695 32.5913C26.439 33.3467 25.1097 33.7499 23.75 33.7499C21.9266 33.7499 20.1779 33.0256 18.8886 31.7363C17.5993 30.447 16.875 28.6983 16.875 26.8749ZM48.4531 41.8593C48.3202 41.955 48.1696 42.0232 48.01 42.0601C47.8505 42.097 47.6852 42.1018 47.5238 42.0741C47.3623 42.0465 47.208 41.987 47.0698 41.8992C46.9316 41.8113 46.8123 41.6968 46.7187 41.5624C45.5628 39.9222 44.0299 38.5835 42.2489 37.6591C40.4679 36.7346 38.491 36.2513 36.4844 36.2499C36.1528 36.2499 35.8349 36.1182 35.6005 35.8838C35.3661 35.6494 35.2344 35.3314 35.2344 34.9999C35.2344 34.6684 35.3661 34.3505 35.6005 34.116C35.8349 33.8816 36.1528 33.7499 36.4844 33.7499C38.3077 33.7499 40.0564 33.0256 41.3457 31.7363C42.635 30.447 43.3594 28.6983 43.3594 26.8749C43.3594 25.0516 42.635 23.3029 41.3457 22.0136C40.0564 20.7242 38.3077 19.9999 36.4844 19.9999C35.8565 20.0041 35.2317 20.0881 34.625 20.2499C34.467 20.2952 34.3016 20.3089 34.1383 20.2903C33.975 20.2716 33.817 20.2209 33.6733 20.1411C33.5296 20.0612 33.4031 19.9539 33.301 19.8251C33.1988 19.6963 33.1231 19.5486 33.0781 19.3905C32.9909 19.0715 33.0319 18.7311 33.1925 18.442C33.3531 18.1529 33.6205 17.9381 33.9375 17.8437C34.7681 17.62 35.6242 17.5045 36.4844 17.4999C38.4999 17.4927 40.4639 18.1362 42.0842 19.3349C43.7046 20.5335 44.8947 22.2232 45.4775 24.1526C46.0604 26.082 46.0048 28.148 45.3192 30.0433C44.6335 31.9386 43.3543 33.5619 41.6719 34.6718C44.5347 35.7281 47.0087 37.63 48.7656 40.1249C48.9532 40.3967 49.0256 40.7316 48.967 41.0565C48.9085 41.3815 48.7237 41.6701 48.4531 41.8593Z" fill="#FEFFFF"/>
</svg>
