<svg width="60" height="60" viewBox="0 0 60 60" fill="none" xmlns="http://www.w3.org/2000/svg">
<rect width="60" height="60" rx="8" fill="#4F7C2F"/>
<path d="M35 44.9999H25M35 44.9999V30.9999C35 30.7346 34.8946 30.4803 34.7071 30.2928C34.5196 30.1052 34.2652 29.9999 34 29.9999H26C25.7348 29.9999 25.4804 30.1052 25.2929 30.2928C25.1054 30.4803 25 30.7346 25 30.9999V44.9999M35 44.9999H44C44.2652 44.9999 44.5196 44.8945 44.7071 44.707C44.8946 44.5194 45 44.2651 45 43.9999V40.1665C45 39.9013 44.8946 39.647 44.7071 39.4594C44.5196 39.2719 44.2652 39.1665 44 39.1665H36C35.7348 39.1665 35.4804 39.2719 35.2929 39.4594C35.1054 39.647 35 39.9013 35 40.1665V44.9999ZM25 44.9999V36.8332C25 36.568 24.8946 36.3136 24.7071 36.1261C24.5196 35.9386 24.2652 35.8332 24 35.8332H16C15.7348 35.8332 15.4804 35.9386 15.2929 36.1261C15.1054 36.3136 15 36.568 15 36.8332V43.9999C15 44.2651 15.1054 44.5194 15.2929 44.707C15.4804 44.8945 15.7348 44.9999 16 44.9999H25ZM28.01 18.5215L29.525 15.3099C29.5659 15.2181 29.6325 15.1401 29.7168 15.0853C29.8011 15.0306 29.8995 15.0015 30 15.0015C30.1005 15.0015 30.1989 15.0306 30.2832 15.0853C30.3675 15.1401 30.4341 15.2181 30.475 15.3099L31.9917 18.5215L35.3783 19.0399C35.8133 19.1065 35.9867 19.6665 35.6717 19.9865L33.2217 22.4865L33.8 26.0165C33.8733 26.4699 33.42 26.8165 33.03 26.6015L30 24.9349L26.97 26.6015C26.5817 26.8149 26.1267 26.4699 26.2 26.0165L26.7783 22.4865L24.3283 19.9865C24.0117 19.6665 24.1867 19.1065 24.62 19.0399L28.01 18.5215Z" stroke="white" stroke-width="1.5" stroke-linecap="round" stroke-linejoin="round"/>
</svg>
