<svg width="60" height="60" viewBox="0 0 60 60" fill="none" xmlns="http://www.w3.org/2000/svg">
<rect width="60" height="60" rx="8" fill="#4F7C2F"/>
<path d="M40 20.7345C39.7328 20.2727 39.3772 19.868 38.9537 19.5437C38.5301 19.2193 38.0467 18.9815 37.5312 18.8439C37.017 18.703 36.4798 18.6664 35.9511 18.7362C35.4225 18.8059 34.9132 18.9807 34.4531 19.2501C33.9841 19.5123 33.5744 19.8687 33.25 20.297L31.0625 16.5158C30.7968 16.053 30.4426 15.6471 30.02 15.3213C29.5975 14.9954 29.1149 14.756 28.5998 14.6167C28.0847 14.4774 27.5472 14.441 27.018 14.5094C26.4888 14.5779 25.9783 14.75 25.5156 15.0158C24.9978 15.3193 24.5504 15.7294 24.2031 16.2189C23.7156 15.7587 23.1186 15.4306 22.4687 15.2658C21.9545 15.1249 21.4173 15.0883 20.8886 15.1581C20.36 15.2278 19.8507 15.4026 19.3906 15.672C18.9288 15.9392 18.5241 16.2948 18.1997 16.7183C17.8753 17.1419 17.6376 17.6253 17.5 18.1408C17.3418 18.7107 17.3151 19.309 17.4219 19.8908C17.034 19.9858 16.6608 20.133 16.3125 20.3283C15.3795 20.8704 14.6994 21.7603 14.4211 22.8029C14.1429 23.8455 14.2893 24.9558 14.8281 25.8908L15.1406 26.422C14.6045 26.4842 14.0878 26.66 13.625 26.9376C12.693 27.4768 12.0132 28.3638 11.7349 29.4039C11.4566 30.444 11.6025 31.552 12.1406 32.4845L17.9219 42.5001C19.582 45.3693 22.3124 47.4626 25.5142 48.3209C28.7159 49.1792 32.1274 48.7323 35 47.0783C37.5202 45.6356 39.451 43.3506 40.4531 40.6251C42.4845 38.6931 43.8065 36.1335 44.2062 33.3586C44.6059 30.5837 44.0599 27.7551 42.6562 25.3283L40 20.7345ZM26.7656 17.1876C26.9439 17.0843 27.141 17.0173 27.3453 16.9905C27.5496 16.9636 27.7573 16.9775 27.9562 17.0312C28.1552 17.0849 28.3416 17.1775 28.5046 17.3036C28.6677 17.4296 28.8042 17.5867 28.9062 17.7658L32.2344 23.5314C31.9349 23.6241 31.6466 23.7499 31.375 23.9064C30.9097 24.1738 30.501 24.5294 30.1719 24.9533L27.9844 21.172C27.6037 20.5062 27.0396 19.9638 26.3594 19.6095L26.1875 19.3283C25.983 18.9671 25.9291 18.54 26.0373 18.1393C26.1455 17.7387 26.4071 17.3968 26.7656 17.1876ZM20.6406 17.8283C21.0018 17.6238 21.4289 17.5698 21.8296 17.678C22.2302 17.7863 22.5721 18.0479 22.7812 18.4064L23.2969 19.3126C22.9984 19.4082 22.7105 19.5339 22.4375 19.6876C21.9132 19.9823 21.464 20.394 21.125 20.8908C20.8582 20.6425 20.5585 20.4322 20.2344 20.2658L20.0781 19.9689C19.9742 19.7915 19.9062 19.5953 19.8782 19.3916C19.8503 19.1879 19.8627 18.9807 19.915 18.7818C19.9673 18.5829 20.0583 18.3964 20.1828 18.2327C20.3073 18.0691 20.4629 17.9316 20.6406 17.8283ZM33.75 44.9064C31.454 46.2315 28.7258 46.5908 26.165 45.9052C23.6042 45.2196 21.4205 43.5452 20.0937 41.2501L14.3125 31.2345C14.1569 30.9674 14.084 30.6601 14.1032 30.3516C14.1223 30.043 14.2325 29.7471 14.4198 29.5012C14.6072 29.2553 14.8632 29.0705 15.1556 28.9702C15.448 28.8699 15.7636 28.8585 16.0625 28.9376C16.4632 29.05 16.8048 29.3132 17.0156 29.672L20.7656 36.172C20.8773 36.3593 21.0349 36.5151 21.2236 36.6244C21.4122 36.7338 21.6257 36.7932 21.8437 36.797C22.0628 36.7962 22.2778 36.7379 22.4672 36.6279C22.6566 36.5179 22.8138 36.36 22.923 36.1701C23.0322 35.9802 23.0895 35.765 23.0893 35.5459C23.0891 35.3269 23.0314 35.1117 22.9219 34.922L16.9844 24.6408C16.7772 24.2802 16.7217 23.8522 16.8301 23.4507C16.9385 23.0493 17.202 22.7073 17.5625 22.5001C17.923 22.2929 18.3511 22.2374 18.7525 22.3459C19.154 22.4543 19.4959 22.7177 19.7031 23.0783L25.6406 33.3595C25.7152 33.5149 25.821 33.6533 25.9516 33.7658C26.0822 33.8783 26.2346 33.9626 26.3993 34.0134C26.5641 34.0642 26.7375 34.0804 26.9088 34.0609C27.0801 34.0415 27.2455 33.9868 27.3946 33.9004C27.5437 33.8139 27.6734 33.6975 27.7753 33.5586C27.8773 33.4196 27.9495 33.2611 27.9873 33.0929C28.0251 32.9247 28.0276 32.7505 27.9949 32.5813C27.9621 32.4121 27.8947 32.2514 27.7969 32.1095L23.1094 23.9845C22.9049 23.6234 22.8509 23.1962 22.9591 22.7956C23.0673 22.3949 23.329 22.053 23.6875 21.8439C24.0463 21.6402 24.471 21.5866 24.8691 21.695C25.2673 21.8033 25.6064 22.0646 25.8125 22.422L32.375 33.797C32.488 33.9866 32.6481 34.1437 32.8397 34.2532C33.0314 34.3627 33.248 34.4209 33.4687 34.422C33.688 34.4166 33.9025 34.3576 34.0937 34.2501C34.3789 34.0837 34.5866 33.8111 34.6715 33.492C34.7564 33.1729 34.7116 32.8332 34.5469 32.547L32.0469 28.2033C31.8417 27.8487 31.7855 27.4273 31.8906 27.0314C31.9406 26.8304 32.0317 26.642 32.158 26.478C32.2844 26.3139 32.4434 26.1778 32.625 26.0783C32.7988 25.9725 32.9928 25.9039 33.1945 25.877C33.3962 25.8501 33.6014 25.8655 33.7969 25.922C33.9958 25.9719 34.1826 26.0612 34.3463 26.1847C34.5101 26.3082 34.6473 26.4632 34.75 26.6408L37.4062 31.2501C38.0645 32.3865 38.492 33.6415 38.6645 34.9434C38.837 36.2452 38.7509 37.5683 38.4113 38.8368C38.0717 40.1053 37.4851 41.2944 36.6853 42.3359C35.8854 43.3774 34.8879 44.2509 33.75 44.9064ZM41.1875 35.0626C41.0253 33.2782 40.4761 31.5506 39.5781 30.0001L36.9219 25.3908C36.5364 24.7286 35.9736 24.1874 35.2969 23.8283L35.125 23.547C34.9189 23.1871 34.8627 22.7605 34.9687 22.3595C35.0811 21.9588 35.3443 21.6172 35.7031 21.4064C35.8802 21.3034 36.0761 21.2367 36.2792 21.2101C36.4824 21.1834 36.6888 21.1974 36.8865 21.2512C37.0842 21.305 37.2692 21.3975 37.4309 21.5234C37.5925 21.6493 37.7275 21.806 37.8281 21.9845L40.4844 26.5783C41.2176 27.854 41.6607 29.2756 41.7823 30.742C41.9038 32.2084 41.7007 33.6836 41.1875 35.0626ZM35.7812 13.8595L36.4219 11.4376C36.4639 11.2786 36.5369 11.1294 36.6366 10.9986C36.7363 10.8678 36.8608 10.7579 37.003 10.6752C37.1452 10.5925 37.3023 10.5386 37.4653 10.5166C37.6283 10.4946 37.7941 10.505 37.9531 10.547C38.1121 10.5891 38.2613 10.6621 38.3921 10.7618C38.523 10.8615 38.6329 10.986 38.7156 11.1282C38.7983 11.2704 38.8521 11.4275 38.8741 11.5905C38.8961 11.7535 38.8858 11.9192 38.8437 12.0783L38.1875 14.5001C38.118 14.7657 37.962 15.0005 37.7441 15.1675C37.5262 15.3344 37.2589 15.424 36.9844 15.422L36.6562 15.3908C36.3376 15.3031 36.0666 15.0927 35.9027 14.8058C35.7387 14.5188 35.695 14.1786 35.7812 13.8595ZM39.8906 15.297L41.3281 13.2501C41.5202 12.9785 41.8115 12.7934 42.139 12.7349C42.4665 12.6764 42.8039 12.7493 43.0781 12.9376C43.2131 13.0326 43.3279 13.1534 43.4159 13.2929C43.5039 13.4325 43.5635 13.5881 43.5911 13.7508C43.6187 13.9135 43.6138 14.08 43.5767 14.2408C43.5396 14.4016 43.4711 14.5535 43.375 14.6876L41.9375 16.7345C41.844 16.8689 41.7246 16.9834 41.5864 17.0713C41.4482 17.1591 41.2939 17.2186 41.1325 17.2462C40.9711 17.2739 40.8058 17.2691 40.6462 17.2322C40.4866 17.1953 40.336 17.1271 40.2031 17.0314C39.9325 16.8422 39.7478 16.5536 39.6892 16.2286C39.6307 15.9037 39.7031 15.5688 39.8906 15.297ZM46.75 18.672L44.7031 20.1095C44.4892 20.2493 44.2399 20.3252 43.9844 20.3283C43.7206 20.3262 43.4643 20.2407 43.252 20.0841C43.0398 19.9275 42.8825 19.7077 42.8028 19.4563C42.723 19.2049 42.7248 18.9347 42.808 18.6843C42.8911 18.434 43.0513 18.2164 43.2656 18.0626L45.3125 16.6251C45.4466 16.5291 45.5985 16.4605 45.7593 16.4234C45.9201 16.3863 46.0866 16.3814 46.2493 16.409C46.412 16.4366 46.5676 16.4962 46.7072 16.5842C46.8468 16.6723 46.9675 16.7871 47.0625 16.922C47.2509 17.1962 47.3237 17.5336 47.2652 17.8611C47.2067 18.1886 47.0216 18.4799 46.75 18.672Z" fill="#FEFFFF"/>
</svg>
