<svg width="99" height="61" viewBox="0 0 99 61" fill="none" xmlns="http://www.w3.org/2000/svg">
<path d="M13.184 0.599999C13.224 0.599999 13.256 0.615999 13.28 0.648C13.312 0.672 13.328 0.704 13.328 0.744V1.908C13.328 1.948 13.312 1.984 13.28 2.016C13.256 2.04 13.224 2.052 13.184 2.052H11.684C11.644 2.052 11.624 2.072 11.624 2.112V8.856C11.624 8.896 11.608 8.932 11.576 8.964C11.552 8.988 11.52 9 11.48 9H10.076C10.036 9 10 8.988 9.968 8.964C9.944 8.932 9.932 8.896 9.932 8.856V2.112C9.932 2.072 9.912 2.052 9.872 2.052H8.432C8.392 2.052 8.356 2.04 8.324 2.016C8.3 1.984 8.288 1.948 8.288 1.908V0.744C8.288 0.704 8.3 0.672 8.324 0.648C8.356 0.615999 8.392 0.599999 8.432 0.599999H13.184ZM17.6333 0.744C17.6333 0.704 17.6453 0.672 17.6693 0.648C17.7013 0.615999 17.7373 0.599999 17.7773 0.599999H19.1813C19.2213 0.599999 19.2533 0.615999 19.2773 0.648C19.3093 0.672 19.3253 0.704 19.3253 0.744V8.856C19.3253 8.896 19.3093 8.932 19.2773 8.964C19.2533 8.988 19.2213 9 19.1813 9H17.7773C17.7373 9 17.7013 8.988 17.6693 8.964C17.6453 8.932 17.6333 8.896 17.6333 8.856V5.58C17.6333 5.54 17.6133 5.52 17.5733 5.52H16.3733C16.3333 5.52 16.3133 5.54 16.3133 5.58V8.856C16.3133 8.896 16.2973 8.932 16.2653 8.964C16.2413 8.988 16.2093 9 16.1693 9H14.7653C14.7253 9 14.6893 8.988 14.6573 8.964C14.6333 8.932 14.6213 8.896 14.6213 8.856V0.744C14.6213 0.704 14.6333 0.672 14.6573 0.648C14.6893 0.615999 14.7253 0.599999 14.7653 0.599999H16.1693C16.2093 0.599999 16.2413 0.615999 16.2653 0.648C16.2973 0.672 16.3133 0.704 16.3133 0.744V4.008C16.3133 4.048 16.3333 4.068 16.3733 4.068H17.5733C17.6133 4.068 17.6333 4.048 17.6333 4.008V0.744ZM25.2358 1.908C25.2358 1.948 25.2198 1.984 25.1878 2.016C25.1638 2.04 25.1318 2.052 25.0918 2.052H22.5838C22.5438 2.052 22.5238 2.072 22.5238 2.112V4.008C22.5238 4.048 22.5438 4.068 22.5838 4.068H24.0238C24.0638 4.068 24.0958 4.084 24.1198 4.116C24.1518 4.14 24.1678 4.172 24.1678 4.212V5.376C24.1678 5.416 24.1518 5.452 24.1198 5.484C24.0958 5.508 24.0638 5.52 24.0238 5.52H22.5838C22.5438 5.52 22.5238 5.54 22.5238 5.58V7.488C22.5238 7.528 22.5438 7.548 22.5838 7.548H25.0918C25.1318 7.548 25.1638 7.564 25.1878 7.596C25.2198 7.62 25.2358 7.652 25.2358 7.692V8.856C25.2358 8.896 25.2198 8.932 25.1878 8.964C25.1638 8.988 25.1318 9 25.0918 9H20.9758C20.9358 9 20.8998 8.988 20.8678 8.964C20.8438 8.932 20.8318 8.896 20.8318 8.856V0.744C20.8318 0.704 20.8438 0.672 20.8678 0.648C20.8998 0.615999 20.9358 0.599999 20.9758 0.599999H25.0918C25.1318 0.599999 25.1638 0.615999 25.1878 0.648C25.2198 0.672 25.2358 0.704 25.2358 0.744V1.908ZM16.64 12C16.7067 12 16.76 12.0267 16.8 12.08C16.8533 12.12 16.88 12.1733 16.88 12.24V14.18C16.88 14.2467 16.8533 14.3067 16.8 14.36C16.76 14.4 16.7067 14.42 16.64 14.42H14.14C14.0733 14.42 14.04 14.4533 14.04 14.52V25.76C14.04 25.8267 14.0133 25.8867 13.96 25.94C13.92 25.98 13.8667 26 13.8 26H11.46C11.3933 26 11.3333 25.98 11.28 25.94C11.24 25.8867 11.22 25.8267 11.22 25.76V14.52C11.22 14.4533 11.1867 14.42 11.12 14.42H8.72C8.65333 14.42 8.59333 14.4 8.54 14.36C8.5 14.3067 8.48 14.2467 8.48 14.18V12.24C8.48 12.1733 8.5 12.12 8.54 12.08C8.59333 12.0267 8.65333 12 8.72 12H16.64ZM23.7555 26C23.6088 26 23.5155 25.9333 23.4755 25.8L21.9355 20.28C21.9088 20.2267 21.8755 20.2 21.8355 20.2H21.1555C21.0888 20.2 21.0555 20.2333 21.0555 20.3V25.76C21.0555 25.8267 21.0288 25.8867 20.9755 25.94C20.9355 25.98 20.8821 26 20.8155 26H18.4755C18.4088 26 18.3488 25.98 18.2955 25.94C18.2555 25.8867 18.2355 25.8267 18.2355 25.76V12.24C18.2355 12.1733 18.2555 12.12 18.2955 12.08C18.3488 12.0267 18.4088 12 18.4755 12H22.5155C23.2488 12 23.9021 12.18 24.4755 12.54C25.0488 12.8867 25.4888 13.38 25.7955 14.02C26.1155 14.66 26.2755 15.3933 26.2755 16.22C26.2755 17.0067 26.1221 17.7 25.8155 18.3C25.5221 18.9 25.1088 19.3667 24.5755 19.7C24.5488 19.7133 24.5288 19.7333 24.5155 19.76C24.5021 19.7733 24.5021 19.7933 24.5155 19.82L26.3555 25.72L26.3755 25.8C26.3755 25.9333 26.3021 26 26.1555 26H23.7555ZM21.1555 14.42C21.0888 14.42 21.0555 14.4533 21.0555 14.52V17.94C21.0555 18.0067 21.0888 18.04 21.1555 18.04H22.0555C22.4688 18.04 22.8021 17.88 23.0555 17.56C23.3221 17.2267 23.4555 16.7867 23.4555 16.24C23.4555 15.68 23.3221 15.24 23.0555 14.92C22.8021 14.5867 22.4688 14.42 22.0555 14.42H21.1555ZM27.8895 26C27.8229 26 27.7629 25.98 27.7095 25.94C27.6695 25.8867 27.6495 25.8267 27.6495 25.76V12.24C27.6495 12.1733 27.6695 12.12 27.7095 12.08C27.7629 12.0267 27.8229 12 27.8895 12H30.2295C30.2962 12 30.3495 12.0267 30.3895 12.08C30.4429 12.12 30.4695 12.1733 30.4695 12.24V25.76C30.4695 25.8267 30.4429 25.8867 30.3895 25.94C30.3495 25.98 30.2962 26 30.2295 26H27.8895ZM32.4989 26C32.4322 26 32.3722 25.98 32.3189 25.94C32.2789 25.8867 32.2589 25.8267 32.2589 25.76V12.24C32.2589 12.1733 32.2789 12.12 32.3189 12.08C32.3722 12.0267 32.4322 12 32.4989 12H34.8389C34.9056 12 34.9589 12.0267 34.9989 12.08C35.0522 12.12 35.0789 12.1733 35.0789 12.24V23.48C35.0789 23.5467 35.1122 23.58 35.1789 23.58H39.3789C39.4456 23.58 39.4989 23.6067 39.5389 23.66C39.5922 23.7 39.6189 23.7533 39.6189 23.82V25.76C39.6189 25.8267 39.5922 25.8867 39.5389 25.94C39.4989 25.98 39.4456 26 39.3789 26H32.4989ZM41.0145 26C40.9479 26 40.8879 25.98 40.8345 25.94C40.7945 25.8867 40.7745 25.8267 40.7745 25.76V12.24C40.7745 12.1733 40.7945 12.12 40.8345 12.08C40.8879 12.0267 40.9479 12 41.0145 12H43.3545C43.4212 12 43.4745 12.0267 43.5145 12.08C43.5679 12.12 43.5945 12.1733 43.5945 12.24V23.48C43.5945 23.5467 43.6279 23.58 43.6945 23.58H47.8945C47.9612 23.58 48.0145 23.6067 48.0545 23.66C48.1079 23.7 48.1345 23.7533 48.1345 23.82V25.76C48.1345 25.8267 48.1079 25.8867 48.0545 25.94C48.0145 25.98 47.9612 26 47.8945 26H41.0145ZM49.5302 26C49.4635 26 49.4035 25.98 49.3502 25.94C49.3102 25.8867 49.2902 25.8267 49.2902 25.76V12.24C49.2902 12.1733 49.3102 12.12 49.3502 12.08C49.4035 12.0267 49.4635 12 49.5302 12H51.8702C51.9368 12 51.9902 12.0267 52.0302 12.08C52.0835 12.12 52.1102 12.1733 52.1102 12.24V25.76C52.1102 25.8267 52.0835 25.8867 52.0302 25.94C51.9902 25.98 51.9368 26 51.8702 26H49.5302ZM57.7395 26.16C56.5129 26.16 55.5329 25.8 54.7995 25.08C54.0662 24.36 53.6995 23.4 53.6995 22.2V15.8C53.6995 14.6 54.0662 13.64 54.7995 12.92C55.5329 12.2 56.5129 11.84 57.7395 11.84C58.9662 11.84 59.9462 12.2 60.6795 12.92C61.4262 13.64 61.7995 14.6 61.7995 15.8V22.2C61.7995 23.4 61.4262 24.36 60.6795 25.08C59.9462 25.8 58.9662 26.16 57.7395 26.16ZM57.7395 23.74C58.1129 23.74 58.4129 23.6133 58.6395 23.36C58.8662 23.0933 58.9795 22.7467 58.9795 22.32V15.68C58.9795 15.2533 58.8662 14.9133 58.6395 14.66C58.4129 14.3933 58.1129 14.26 57.7395 14.26C57.3662 14.26 57.0662 14.3933 56.8395 14.66C56.6262 14.9133 56.5195 15.2533 56.5195 15.68V22.32C56.5195 22.7467 56.6262 23.0933 56.8395 23.36C57.0662 23.6133 57.3662 23.74 57.7395 23.74ZM69.0727 12.24C69.0727 12.1733 69.0927 12.12 69.1327 12.08C69.186 12.0267 69.246 12 69.3127 12H71.6327C71.6993 12 71.7527 12.0267 71.7927 12.08C71.846 12.12 71.8727 12.1733 71.8727 12.24V25.76C71.8727 25.8267 71.846 25.8867 71.7927 25.94C71.7527 25.98 71.6993 26 71.6327 26H68.9927C68.8593 26 68.7727 25.9333 68.7327 25.8L66.2527 18.06C66.2393 18.02 66.2127 18.0067 66.1727 18.02C66.146 18.02 66.1327 18.04 66.1327 18.08L66.1527 25.76C66.1527 25.8267 66.126 25.8867 66.0727 25.94C66.0327 25.98 65.9793 26 65.9127 26H63.5927C63.526 26 63.466 25.98 63.4127 25.94C63.3727 25.8867 63.3527 25.8267 63.3527 25.76V12.24C63.3527 12.1733 63.3727 12.12 63.4127 12.08C63.466 12.0267 63.526 12 63.5927 12H66.2127C66.346 12 66.4327 12.0667 66.4727 12.2L68.9727 19.94C68.986 19.98 69.006 20 69.0327 20C69.0727 19.9867 69.0927 19.96 69.0927 19.92L69.0727 12.24ZM9.12 43C9.05333 43 8.99333 42.98 8.94 42.94C8.9 42.8867 8.88 42.8267 8.88 42.76V29.24C8.88 29.1733 8.9 29.12 8.94 29.08C8.99333 29.0267 9.05333 29 9.12 29H12.74C13.9533 29 14.9267 29.3533 15.66 30.06C16.3933 30.7667 16.76 31.7067 16.76 32.88V39.12C16.76 40.2933 16.3933 41.2333 15.66 41.94C14.9267 42.6467 13.9533 43 12.74 43H9.12ZM11.7 40.48C11.7 40.5467 11.7333 40.58 11.8 40.58L12.7 40.56C13.06 40.5467 13.3533 40.3933 13.58 40.1C13.8067 39.8067 13.9267 39.42 13.94 38.94V33.06C13.94 32.5533 13.8267 32.1533 13.6 31.86C13.3733 31.5667 13.0667 31.42 12.68 31.42H11.8C11.7333 31.42 11.7 31.4533 11.7 31.52V40.48ZM22.2317 43.16C21.0051 43.16 20.0251 42.8 19.2917 42.08C18.5584 41.36 18.1917 40.4 18.1917 39.2V32.8C18.1917 31.6 18.5584 30.64 19.2917 29.92C20.0251 29.2 21.0051 28.84 22.2317 28.84C23.4584 28.84 24.4384 29.2 25.1717 29.92C25.9184 30.64 26.2917 31.6 26.2917 32.8V39.2C26.2917 40.4 25.9184 41.36 25.1717 42.08C24.4384 42.8 23.4584 43.16 22.2317 43.16ZM22.2317 40.74C22.6051 40.74 22.9051 40.6133 23.1317 40.36C23.3584 40.0933 23.4717 39.7467 23.4717 39.32V32.68C23.4717 32.2533 23.3584 31.9133 23.1317 31.66C22.9051 31.3933 22.6051 31.26 22.2317 31.26C21.8584 31.26 21.5584 31.3933 21.3317 31.66C21.1184 31.9133 21.0117 32.2533 21.0117 32.68V39.32C21.0117 39.7467 21.1184 40.0933 21.3317 40.36C21.5584 40.6133 21.8584 40.74 22.2317 40.74ZM28.0848 43C28.0182 43 27.9582 42.98 27.9048 42.94C27.8648 42.8867 27.8448 42.8267 27.8448 42.76V29.24C27.8448 29.1733 27.8648 29.12 27.9048 29.08C27.9582 29.0267 28.0182 29 28.0848 29H30.4248C30.4915 29 30.5448 29.0267 30.5848 29.08C30.6382 29.12 30.6648 29.1733 30.6648 29.24V40.48C30.6648 40.5467 30.6982 40.58 30.7648 40.58H34.9648C35.0315 40.58 35.0848 40.6067 35.1248 40.66C35.1782 40.7 35.2048 40.7533 35.2048 40.82V42.76C35.2048 42.8267 35.1782 42.8867 35.1248 42.94C35.0848 42.98 35.0315 43 34.9648 43H28.0848ZM36.6005 43C36.5338 43 36.4738 42.98 36.4205 42.94C36.3805 42.8867 36.3605 42.8267 36.3605 42.76V29.24C36.3605 29.1733 36.3805 29.12 36.4205 29.08C36.4738 29.0267 36.5338 29 36.6005 29H38.9405C39.0071 29 39.0605 29.0267 39.1005 29.08C39.1538 29.12 39.1805 29.1733 39.1805 29.24V40.48C39.1805 40.5467 39.2138 40.58 39.2805 40.58H43.4805C43.5471 40.58 43.6005 40.6067 43.6405 40.66C43.6938 40.7 43.7205 40.7533 43.7205 40.82V42.76C43.7205 42.8267 43.6938 42.8867 43.6405 42.94C43.6005 42.98 43.5471 43 43.4805 43H36.6005ZM51.0881 43C50.9281 43 50.8415 42.9267 50.8281 42.78L50.5081 40.86C50.5081 40.7933 50.4681 40.76 50.3881 40.76H47.8481C47.7681 40.76 47.7281 40.7933 47.7281 40.86L47.4081 42.78C47.3948 42.9267 47.3081 43 47.1481 43H44.8081C44.6348 43 44.5681 42.9133 44.6081 42.74L47.5481 29.22C47.5748 29.0733 47.6615 29 47.8081 29H50.5081C50.6548 29 50.7415 29.0733 50.7681 29.22L53.6881 42.74L53.7081 42.82C53.7081 42.94 53.6348 43 53.4881 43H51.0881ZM48.1281 38.48C48.1281 38.5467 48.1548 38.58 48.2081 38.58H50.0081C50.0748 38.58 50.1015 38.5467 50.0881 38.48L49.1481 33.02C49.1348 32.98 49.1148 32.96 49.0881 32.96C49.0615 32.96 49.0415 32.98 49.0281 33.02L48.1281 38.48ZM60.3766 43C60.2299 43 60.1366 42.9333 60.0966 42.8L58.5566 37.28C58.5299 37.2267 58.4966 37.2 58.4566 37.2H57.7766C57.7099 37.2 57.6766 37.2333 57.6766 37.3V42.76C57.6766 42.8267 57.6499 42.8867 57.5966 42.94C57.5566 42.98 57.5032 43 57.4366 43H55.0966C55.0299 43 54.9699 42.98 54.9166 42.94C54.8766 42.8867 54.8566 42.8267 54.8566 42.76V29.24C54.8566 29.1733 54.8766 29.12 54.9166 29.08C54.9699 29.0267 55.0299 29 55.0966 29H59.1366C59.8699 29 60.5232 29.18 61.0966 29.54C61.6699 29.8867 62.1099 30.38 62.4166 31.02C62.7366 31.66 62.8966 32.3933 62.8966 33.22C62.8966 34.0067 62.7432 34.7 62.4366 35.3C62.1432 35.9 61.7299 36.3667 61.1966 36.7C61.1699 36.7133 61.1499 36.7333 61.1366 36.76C61.1232 36.7733 61.1232 36.7933 61.1366 36.82L62.9766 42.72L62.9966 42.8C62.9966 42.9333 62.9232 43 62.7766 43H60.3766ZM57.7766 31.42C57.7099 31.42 57.6766 31.4533 57.6766 31.52V34.94C57.6766 35.0067 57.7099 35.04 57.7766 35.04H58.6766C59.0899 35.04 59.4232 34.88 59.6766 34.56C59.9432 34.2267 60.0766 33.7867 60.0766 33.24C60.0766 32.68 59.9432 32.24 59.6766 31.92C59.4232 31.5867 59.0899 31.42 58.6766 31.42H57.7766ZM12.66 60.16C11.46 60.16 10.4933 59.8067 9.76 59.1C9.04 58.38 8.68 57.42 8.68 56.22V49.74C8.68 48.5533 9.04 47.6067 9.76 46.9C10.4933 46.1933 11.46 45.84 12.66 45.84C13.8733 45.84 14.84 46.1933 15.56 46.9C16.2933 47.6067 16.66 48.5533 16.66 49.74V49.96C16.66 50.0267 16.6333 50.0867 16.58 50.14C16.54 50.18 16.4867 50.2 16.42 50.2L14.08 50.3C13.92 50.3 13.84 50.2267 13.84 50.08V49.56C13.84 49.1733 13.7333 48.86 13.52 48.62C13.3067 48.38 13.02 48.26 12.66 48.26C12.3133 48.26 12.0333 48.38 11.82 48.62C11.6067 48.86 11.5 49.1733 11.5 49.56V56.46C11.5 56.8467 11.6067 57.16 11.82 57.4C12.0333 57.6267 12.3133 57.74 12.66 57.74C13.02 57.74 13.3067 57.6267 13.52 57.4C13.7333 57.16 13.84 56.8467 13.84 56.46V55.92C13.84 55.8533 13.86 55.8 13.9 55.76C13.9533 55.7067 14.0133 55.68 14.08 55.68L16.42 55.78C16.4867 55.78 16.54 55.8067 16.58 55.86C16.6333 55.9 16.66 55.9533 16.66 56.02V56.22C16.66 57.42 16.2933 58.38 15.56 59.1C14.8267 59.8067 13.86 60.16 12.66 60.16ZM23.1773 46.24C23.1773 46.1733 23.1973 46.12 23.2373 46.08C23.2907 46.0267 23.3507 46 23.4173 46H25.7573C25.824 46 25.8773 46.0267 25.9173 46.08C25.9707 46.12 25.9973 46.1733 25.9973 46.24V59.76C25.9973 59.8267 25.9707 59.8867 25.9173 59.94C25.8773 59.98 25.824 60 25.7573 60H23.4173C23.3507 60 23.2907 59.98 23.2373 59.94C23.1973 59.8867 23.1773 59.8267 23.1773 59.76V54.3C23.1773 54.2333 23.144 54.2 23.0773 54.2H21.0773C21.0107 54.2 20.9773 54.2333 20.9773 54.3V59.76C20.9773 59.8267 20.9507 59.8867 20.8973 59.94C20.8573 59.98 20.804 60 20.7373 60H18.3973C18.3307 60 18.2707 59.98 18.2173 59.94C18.1773 59.8867 18.1573 59.8267 18.1573 59.76V46.24C18.1573 46.1733 18.1773 46.12 18.2173 46.08C18.2707 46.0267 18.3307 46 18.3973 46H20.7373C20.804 46 20.8573 46.0267 20.8973 46.08C20.9507 46.12 20.9773 46.1733 20.9773 46.24V51.68C20.9773 51.7467 21.0107 51.78 21.0773 51.78H23.0773C23.144 51.78 23.1773 51.7467 23.1773 51.68V46.24ZM33.6467 60C33.4867 60 33.4001 59.9267 33.3867 59.78L33.0667 57.86C33.0667 57.7933 33.0267 57.76 32.9467 57.76H30.4067C30.3267 57.76 30.2867 57.7933 30.2867 57.86L29.9667 59.78C29.9534 59.9267 29.8667 60 29.7067 60H27.3667C27.1934 60 27.1267 59.9133 27.1667 59.74L30.1067 46.22C30.1334 46.0733 30.2201 46 30.3667 46H33.0667C33.2134 46 33.3001 46.0733 33.3267 46.22L36.2467 59.74L36.2667 59.82C36.2667 59.94 36.1934 60 36.0467 60H33.6467ZM30.6867 55.48C30.6867 55.5467 30.7134 55.58 30.7667 55.58H32.5667C32.6334 55.58 32.6601 55.5467 32.6467 55.48L31.7067 50.02C31.6934 49.98 31.6734 49.96 31.6467 49.96C31.6201 49.96 31.6001 49.98 31.5867 50.02L30.6867 55.48ZM37.6552 60C37.5885 60 37.5285 59.98 37.4752 59.94C37.4352 59.8867 37.4152 59.8267 37.4152 59.76V46.24C37.4152 46.1733 37.4352 46.12 37.4752 46.08C37.5285 46.0267 37.5885 46 37.6552 46H39.9952C40.0618 46 40.1152 46.0267 40.1552 46.08C40.2085 46.12 40.2352 46.1733 40.2352 46.24V57.48C40.2352 57.5467 40.2685 57.58 40.3352 57.58H44.5352C44.6018 57.58 44.6552 57.6067 44.6952 57.66C44.7485 57.7 44.7752 57.7533 44.7752 57.82V59.76C44.7752 59.8267 44.7485 59.8867 44.6952 59.94C44.6552 59.98 44.6018 60 44.5352 60H37.6552ZM46.1708 60C46.1041 60 46.0441 59.98 45.9908 59.94C45.9508 59.8867 45.9308 59.8267 45.9308 59.76V46.24C45.9308 46.1733 45.9508 46.12 45.9908 46.08C46.0441 46.0267 46.1041 46 46.1708 46H48.5108C48.5774 46 48.6308 46.0267 48.6708 46.08C48.7241 46.12 48.7508 46.1733 48.7508 46.24V57.48C48.7508 57.5467 48.7841 57.58 48.8508 57.58H53.0508C53.1174 57.58 53.1708 57.6067 53.2108 57.66C53.2641 57.7 53.2908 57.7533 53.2908 57.82V59.76C53.2908 59.8267 53.2641 59.8867 53.2108 59.94C53.1708 59.98 53.1174 60 53.0508 60H46.1708ZM61.7864 48.18C61.7864 48.2467 61.7597 48.3067 61.7064 48.36C61.6664 48.4 61.6131 48.42 61.5464 48.42H57.3664C57.2997 48.42 57.2664 48.4533 57.2664 48.52V51.68C57.2664 51.7467 57.2997 51.78 57.3664 51.78H59.7664C59.8331 51.78 59.8864 51.8067 59.9264 51.86C59.9797 51.9 60.0064 51.9533 60.0064 52.02V53.96C60.0064 54.0267 59.9797 54.0867 59.9264 54.14C59.8864 54.18 59.8331 54.2 59.7664 54.2H57.3664C57.2997 54.2 57.2664 54.2333 57.2664 54.3V57.48C57.2664 57.5467 57.2997 57.58 57.3664 57.58H61.5464C61.6131 57.58 61.6664 57.6067 61.7064 57.66C61.7597 57.7 61.7864 57.7533 61.7864 57.82V59.76C61.7864 59.8267 61.7597 59.8867 61.7064 59.94C61.6664 59.98 61.6131 60 61.5464 60H54.6864C54.6197 60 54.5597 59.98 54.5064 59.94C54.4664 59.8867 54.4464 59.8267 54.4464 59.76V46.24C54.4464 46.1733 54.4664 46.12 54.5064 46.08C54.5597 46.0267 54.6197 46 54.6864 46H61.5464C61.6131 46 61.6664 46.0267 61.7064 46.08C61.7597 46.12 61.7864 46.1733 61.7864 46.24V48.18ZM68.9359 46.24C68.9359 46.1733 68.9559 46.12 68.9959 46.08C69.0493 46.0267 69.1093 46 69.1759 46H71.4959C71.5626 46 71.6159 46.0267 71.6559 46.08C71.7093 46.12 71.7359 46.1733 71.7359 46.24V59.76C71.7359 59.8267 71.7093 59.8867 71.6559 59.94C71.6159 59.98 71.5626 60 71.4959 60H68.8559C68.7226 60 68.6359 59.9333 68.5959 59.8L66.1159 52.06C66.1026 52.02 66.0759 52.0067 66.0359 52.02C66.0093 52.02 65.9959 52.04 65.9959 52.08L66.0159 59.76C66.0159 59.8267 65.9893 59.8867 65.9359 59.94C65.8959 59.98 65.8426 60 65.7759 60H63.4559C63.3893 60 63.3293 59.98 63.2759 59.94C63.2359 59.8867 63.2159 59.8267 63.2159 59.76V46.24C63.2159 46.1733 63.2359 46.12 63.2759 46.08C63.3293 46.0267 63.3893 46 63.4559 46H66.0759C66.2093 46 66.2959 46.0667 66.3359 46.2L68.8359 53.94C68.8493 53.98 68.8693 54 68.8959 54C68.9359 53.9867 68.9559 53.96 68.9559 53.92L68.9359 46.24ZM77.2694 60.16C76.0694 60.16 75.1027 59.82 74.3694 59.14C73.6494 58.4467 73.2894 57.5267 73.2894 56.38V49.62C73.2894 48.4733 73.6494 47.56 74.3694 46.88C75.1027 46.1867 76.0694 45.84 77.2694 45.84C78.4694 45.84 79.436 46.1867 80.1694 46.88C80.9027 47.5733 81.2694 48.4933 81.2694 49.64V50.4C81.2694 50.4667 81.2427 50.5267 81.1894 50.58C81.1494 50.62 81.096 50.64 81.0294 50.64H78.6894C78.6227 50.64 78.5627 50.62 78.5094 50.58C78.4694 50.5267 78.4494 50.4667 78.4494 50.4V49.6C78.4494 49.2 78.3427 48.88 78.1294 48.64C77.916 48.3867 77.6294 48.26 77.2694 48.26C76.9227 48.26 76.6427 48.3867 76.4294 48.64C76.216 48.88 76.1094 49.2 76.1094 49.6V56.4C76.1094 56.8 76.216 57.1267 76.4294 57.38C76.6427 57.62 76.9227 57.74 77.2694 57.74C77.6294 57.74 77.916 57.62 78.1294 57.38C78.3427 57.1267 78.4494 56.8 78.4494 56.4V54.8C78.4494 54.7333 78.416 54.7 78.3494 54.7H77.4694C77.4027 54.7 77.3427 54.68 77.2894 54.64C77.2494 54.5867 77.2294 54.5267 77.2294 54.46V52.68C77.2294 52.6133 77.2494 52.56 77.2894 52.52C77.3427 52.4667 77.4027 52.44 77.4694 52.44H81.0294C81.096 52.44 81.1494 52.4667 81.1894 52.52C81.2427 52.56 81.2694 52.6133 81.2694 52.68V56.38C81.2694 57.5267 80.9027 58.4467 80.1694 59.14C79.436 59.82 78.4694 60.16 77.2694 60.16ZM90.1653 48.18C90.1653 48.2467 90.1386 48.3067 90.0853 48.36C90.0453 48.4 89.992 48.42 89.9253 48.42H85.7453C85.6786 48.42 85.6453 48.4533 85.6453 48.52V51.68C85.6453 51.7467 85.6786 51.78 85.7453 51.78H88.1453C88.212 51.78 88.2653 51.8067 88.3053 51.86C88.3586 51.9 88.3853 51.9533 88.3853 52.02V53.96C88.3853 54.0267 88.3586 54.0867 88.3053 54.14C88.2653 54.18 88.212 54.2 88.1453 54.2H85.7453C85.6786 54.2 85.6453 54.2333 85.6453 54.3V57.48C85.6453 57.5467 85.6786 57.58 85.7453 57.58H89.9253C89.992 57.58 90.0453 57.6067 90.0853 57.66C90.1386 57.7 90.1653 57.7533 90.1653 57.82V59.76C90.1653 59.8267 90.1386 59.8867 90.0853 59.94C90.0453 59.98 89.992 60 89.9253 60H83.0653C82.9986 60 82.9386 59.98 82.8853 59.94C82.8453 59.8867 82.8253 59.8267 82.8253 59.76V46.24C82.8253 46.1733 82.8453 46.12 82.8853 46.08C82.9386 46.0267 82.9986 46 83.0653 46H89.9253C89.992 46 90.0453 46.0267 90.0853 46.08C90.1386 46.12 90.1653 46.1733 90.1653 46.24V48.18Z" fill="#1F2937"/>
</svg>
